<?xml version="1.0" encoding="utf-8"?>
<!-- Generator: Adobe Illustrator 26.0.2, SVG Export Plug-In . SVG Version: 6.00 Build 0)  -->
<svg version="1.1"
	 id="svg8" inkscape:version="0.92.3 (2405546, 2018-03-11)" sodipodi:docname="icon.svg" xmlns:cc="http://creativecommons.org/ns#" xmlns:dc="http://purl.org/dc/elements/1.1/" xmlns:inkscape="http://www.inkscape.org/namespaces/inkscape" xmlns:rdf="http://www.w3.org/1999/02/22-rdf-syntax-ns#" xmlns:sodipodi="http://sodipodi.sourceforge.net/DTD/sodipodi-0.dtd" xmlns:svg="http://www.w3.org/2000/svg"
	 xmlns="http://www.w3.org/2000/svg" xmlns:xlink="http://www.w3.org/1999/xlink" x="0px" y="0px" viewBox="0 0 283.5 283.5"
	 style="enable-background:new 0 0 283.5 283.5;" xml:space="preserve">
<style type="text/css">
	.st0{fill:#FFFFFF;}
</style>
<sodipodi:namedview  bordercolor="#666666" borderopacity="1.0" id="base" inkscape:current-layer="layer1" inkscape:cx="298.98271" inkscape:cy="183.34933" inkscape:document-units="mm" inkscape:pageopacity="0.0" inkscape:pageshadow="2" inkscape:window-height="1017" inkscape:window-maximized="1" inkscape:window-width="1920" inkscape:window-x="1912" inkscape:window-y="-8" inkscape:zoom="1.979899" pagecolor="#ffffff" showgrid="false" units="px">
	</sodipodi:namedview>
<g id="layer1" transform="translate(0,-197)" inkscape:groupmode="layer" inkscape:label="Layer 1">
	
		<path id="path3724" inkscape:connector-curvature="0" sodipodi:nodetypes="cccccccccccsccsssccscscccccccccccssscssccccccsccccccccsscsc" class="st0" d="
		M69.1,360.5v-70.8l-11-6.8c-7.8-4.8-11.1-6.2-11.6-4.8c-0.3,1.1-0.5,32.6-0.3,69.9l0.3,67.9l10.3,7.7c5.7,4.2,10.7,7.7,11.2,7.7
		C68.7,431.3,69.1,399.4,69.1,360.5L69.1,360.5z M237.2,346.4c0.2-38.7,0-70.4-0.4-70.4c-0.7,0-34,21.4-75.7,48.7l-16.6,10.9
		l-26.8-16.8c-14.7-9.3-27.3-16.8-28.1-16.8c-0.8,0-1.3,6.3-1.3,15.9v15.9l27.1,17.3c14.9,9.5,27.8,17.3,28.6,17.3
		c1.5,0,11.9-6.7,54.4-34.9c8.6-5.7,16-10.4,16.4-10.4c0.4,0,0.7,0.9,0.6,2c-0.1,1.1-0.1,25.5-0.1,54.2l0.2,52.2l10.6-7.2l10.6-7.2
		L237.2,346.4z M100.2,419.7l10-8.3v-18.1v-18.1l-10.2-6.7c-5.6-3.7-10.5-6.7-10.9-6.7c-0.4,0-0.7,14.9-0.7,33.1
		c0,18.2,0.4,33.1,0.9,33.1C89.8,428,94.7,424.3,100.2,419.7L100.2,419.7z M195.1,394.8c0-18.3-0.4-33-1-32.7s-5.4,3.4-10.9,6.9
		l-10,6.4v18.1v18.1l10,8.1c5.5,4.5,10.4,8.2,10.9,8.2C194.7,428,195.1,413.1,195.1,394.8z M183.1,285.6
		c20.8-13.4,37.7-24.6,37.5-24.8c-2.6-2.6-18.5-12.2-20.1-12.2c-1.2,0-14,7.7-28.5,17l-26.4,17l-28.5-18.2l-28.5-18.2l-9.7,6
		c-5.4,3.3-9.7,6.6-9.7,7.3c0,0.7,15.8,11.4,35,23.7s36.2,23.4,37.6,24.6c1.4,1.2,2.7,2.2,3,2.2C145,310,162.2,299,183.1,285.6z"/>
</g>
</svg>
